<?xml version="1.0" standalone="no"?>
<!DOCTYPE svg PUBLIC "-//W3C//DTD SVG 20010904//EN"
 "http://www.w3.org/TR/2001/REC-SVG-20010904/DTD/svg10.dtd">
<svg version="1.0" xmlns="http://www.w3.org/2000/svg"
 width="500.000000pt" height="500.000000pt" viewBox="0 0 500.000000 500.000000"
 preserveAspectRatio="xMidYMid meet">

<g transform="translate(0.000000,500.000000) scale(0.100000,-0.100000)"
fill="#000000" stroke="none">
<path d="M2719 4040 c-56 -29 -106 -92 -124 -155 -32 -108 0 -214 125 -414 45
-72 85 -131 89 -131 10 0 84 124 140 235 126 251 96 455 -68 455 -145 0 -219
-207 -109 -306 50 -46 110 -36 133 21 22 51 19 89 -11 124 -25 30 -74 44 -74
21 0 -5 9 -10 19 -10 23 0 61 -45 61 -72 0 -10 -7 -34 -14 -53 -12 -28 -20
-35 -43 -35 -79 0 -127 103 -89 193 20 50 80 97 122 97 84 0 124 -50 124 -157
0 -116 -25 -188 -138 -390 -25 -46 -49 -83 -52 -83 -11 0 -127 192 -162 266
-40 85 -50 191 -24 258 20 52 78 108 130 127 20 7 36 17 36 21 0 14 -33 8 -71
-12z"/>
<path d="M2367 3894 c-186 -34 -376 -131 -491 -253 -48 -50 -21 -47 36 4 92
83 227 164 316 190 19 6 22 3 22 -25 0 -24 -10 -42 -41 -72 -77 -77 -85 -128
-39 -263 33 -99 39 -178 15 -212 -10 -14 -42 -30 -88 -44 -101 -30 -117 -40
-214 -130 -47 -44 -91 -78 -97 -76 -21 8 -9 85 26 168 48 113 54 143 33 176
-15 23 -22 25 -67 21 -27 -3 -62 -14 -76 -25 -58 -43 -99 -229 -89 -410 21
-413 314 -750 730 -838 90 -20 269 -19 364 1 425 88 729 464 726 899 -1 184
-45 330 -148 490 -68 105 -213 250 -232 232 -3 -4 29 -39 71 -78 94 -87 154
-170 205 -281 53 -113 72 -193 78 -328 7 -146 -15 -277 -55 -330 -47 -63 -106
-122 -158 -161 -65 -48 -82 -85 -65 -147 6 -25 8 -48 4 -52 -105 -93 -234
-165 -368 -206 -81 -25 -105 -28 -245 -28 -140 0 -164 3 -243 27 -104 32 -190
74 -272 132 -90 64 -97 74 -86 124 12 57 -1 101 -49 157 -50 57 -51 84 -5 148
52 73 45 110 -27 147 -44 22 -121 30 -169 16 -27 -7 -27 -7 -34 63 -12 117 21
326 60 386 17 27 77 48 111 40 36 -9 32 -59 -16 -170 -52 -122 -54 -196 -5
-196 15 0 55 29 115 85 90 83 122 101 219 125 60 16 98 55 106 111 5 36 0 66
-29 155 -20 61 -36 121 -36 133 0 31 27 79 71 128 32 35 39 50 39 82 0 39 2
41 43 52 23 6 82 14 131 18 58 4 91 10 94 19 5 16 -68 15 -171 -4z m-550
-1059 c65 -27 69 -62 18 -136 -19 -28 -35 -58 -35 -66 0 -21 25 -65 50 -88 12
-11 28 -32 36 -47 16 -30 19 -104 5 -112 -13 -8 -86 77 -132 154 -74 125 -125
283 -98 301 23 14 117 10 156 -6z m1509 -218 c-30 -73 -152 -240 -168 -231
-13 8 -9 89 5 106 6 8 37 34 67 56 31 23 66 55 78 72 29 39 36 38 18 -3z"/>
<path d="M2696 3250 c-43 -40 -43 -40 -61 -20 -10 11 -35 25 -56 32 -50 15
-89 -8 -89 -52 0 -57 72 -87 133 -55 25 13 31 12 60 -5 25 -16 50 -20 113 -20
68 0 89 -4 135 -27 113 -58 133 -180 42 -264 -51 -48 -107 -68 -246 -88 -195
-29 -225 -42 -327 -151 -82 -86 -88 -90 -128 -90 -41 0 -42 0 -42 36 0 44 11
65 67 131 73 86 82 118 83 273 1 86 6 149 14 173 15 42 4 60 -15 25 -8 -14
-15 -86 -19 -183 -7 -180 -11 -191 -90 -286 -97 -117 -88 -214 19 -194 28 5
55 27 126 99 104 108 124 117 303 142 182 25 250 55 305 136 26 38 28 50 25
105 -3 51 -9 69 -34 99 -47 59 -94 78 -205 84 -77 4 -101 9 -118 24 l-21 19
22 25 c13 13 35 31 51 40 30 18 35 32 12 32 -9 0 -35 -18 -59 -40z m-91 -26
c33 -22 31 -39 -5 -54 -50 -21 -102 13 -86 55 7 20 60 19 91 -1z"/>
<path d="M2655 2404 c-16 -8 -61 -46 -100 -83 -47 -45 -81 -70 -103 -75 -17
-3 -45 -9 -62 -12 -35 -7 -80 -40 -80 -60 0 -20 9 -17 34 9 15 16 43 28 86 36
59 12 70 18 134 81 82 78 102 90 150 90 40 0 76 -28 76 -59 0 -35 37 -51 102
-44 40 4 58 2 58 -6 0 -6 5 -11 10 -11 6 0 10 7 10 15 0 22 -38 33 -96 28
l-50 -5 -16 41 c-12 31 -26 45 -52 56 -45 19 -64 19 -101 -1z"/>
<path d="M1846 1794 c-31 -75 -56 -140 -56 -145 0 -15 58 -10 64 6 4 10 20 15
51 15 31 0 47 -5 51 -15 4 -9 19 -15 39 -15 l32 0 -57 140 c-31 77 -59 142
-62 145 -3 3 -31 -56 -62 -131z m78 -51 c6 -20 4 -23 -18 -23 -30 0 -29 -2
-15 40 12 34 19 30 33 -17z"/>
<path d="M2626 1920 c-115 -36 -131 -211 -25 -266 23 -11 48 -15 87 -12 48 4
60 10 88 41 44 47 52 96 28 155 -28 68 -107 104 -178 82z m97 -70 c71 -56 22
-164 -68 -151 -53 8 -83 79 -54 132 21 40 83 50 122 19z"/>
<path d="M1532 1900 c-57 -35 -78 -118 -46 -185 27 -57 56 -69 167 -72 l98 -2
-14 23 c-13 19 -13 26 -1 47 34 62 4 165 -56 196 -38 19 -110 16 -148 -7z
m109 -40 c5 0 18 -9 29 -20 21 -21 29 -100 10 -100 -5 0 -10 5 -10 10 0 6 -16
10 -36 10 l-35 0 21 -30 21 -30 -35 0 c-85 0 -105 127 -25 159 13 5 30 8 37 5
8 -2 18 -4 23 -4z"/>
<path d="M2169 1873 c59 -149 95 -233 102 -233 3 0 17 25 29 55 12 30 26 53
30 50 4 -3 16 -28 26 -55 10 -28 22 -49 27 -47 7 2 117 260 117 275 0 2 -14 2
-31 0 -29 -3 -34 -9 -59 -72 l-27 -69 -28 73 -28 74 -26 -67 c-14 -37 -28 -67
-31 -67 -3 0 -17 29 -30 65 -23 62 -26 65 -57 65 l-33 0 19 -47z"/>
<path d="M2870 1780 l0 -140 30 0 c30 0 30 1 30 55 0 38 4 55 13 55 7 0 25
-25 40 -55 24 -49 30 -55 57 -55 16 0 30 2 30 5 0 3 -13 29 -29 57 l-29 51 24
21 c34 29 36 87 4 121 -21 22 -32 25 -97 25 l-73 0 0 -140z m124 74 c24 -23 4
-54 -34 -54 -28 0 -30 3 -30 35 0 30 3 35 24 35 14 0 32 -7 40 -16z"/>
<path d="M3110 1780 l0 -140 75 0 75 0 0 30 c0 29 -2 30 -45 30 l-45 0 0 110
0 110 -30 0 -30 0 0 -140z"/>
<path d="M3310 1780 l0 -140 58 0 c97 0 162 55 162 138 0 91 -56 142 -157 142
l-63 0 0 -140z m109 79 c83 -29 62 -159 -26 -159 l-33 0 0 78 c0 98 2 101 59
81z"/>
</g>
</svg>
